# xmcd
#
# Track frame offsets:
# 150
# 12918
# 27768
# 44738
# 61806
# 75581
# 90827
# 112146
# 123568
# 136150
# 159017
# 172184
# 184499
# 200004
# 216112
#
# Disc length: 3119 seconds
#
# Revision: 0
# Processed by: cddbd v1.5.1PL2 Copyright (c) Steve Scherf et al.
# Submitted via: Audion 3.0.2 (http://www.panic.com/audion/)
#
DISCID=cb0c2d0f
DTITLE=Various Artist - 50 Jahre Deutscher Schlager (1970-1974) 
DYEAR=1900
DGENRE=
TTITLE0=roberto_blanco_-_ein_bischen_spass_muss_sein
TTITLE1=wencke_myhre_-_er_hat_ein_knallrotes_gummiboot
TTITLE2=chris_roberts_-_du_kannst_nicht_immer_17_sein
TTITLE3=vicky_leandros_-_theo_wir_fahrn_nach_lodz
TTITLE4=karel_gott_-_einmal_um_die_ganze_welt
TTITLE5=dennie_christian_-_rosamunde
TTITLE6=christian_anders_-_es_faehrt_ein_zug_nach_nirgendwo
TTITLE7=insterburg_and_co_-_ich_liebte_ein_maedchen
TTITLE8=wums_gesang_-_ich_wuensch_mir_ne_kleine_miezekatze
TTITLE9=ricky_shanyne_-_mamy_blue
TTITLE10=marianne_rosenberg_-_fremder_mann
TTITLE11=michael_holm_-_barfuss_im_regen
TTITLE12=roy_black_and_anita_-_schoen_ist_es_auf_der_welt_zu_sein
TTITLE13=katja_ebstein_-_wunder_gibt_es_immer_wieder
TTITLE14=demis_roussos_-_goodbye_my_love_goodbye
EXTD=
EXTT0=
EXTT1=
EXTT2=
EXTT3=
EXTT4=
EXTT5=
EXTT6=
EXTT7=
EXTT8=
EXTT9=
EXTT10=
EXTT11=
EXTT12=
EXTT13=
EXTT14=
PLAYORDER=
